ok_symbol coordinate motion generated from LLM joint_angles
version=1
nRows=33
nColumns=29
inDegrees=yes
endheader
time	elbow_flexion	pro_sup	rotaxis_auxprfem_r3	deviation	auxprrud_auxdrfem_r3	auxdrfem_auxdrrud_r1	MCP2_lateral	MCP2_flex	PIP_flex	DIP_flex	MCP2M_lateral	MCP2M_flex	MPIP_flex	MDIP_flex	RCP2M_lateral	RCP2M_flex	RPIP_flex	RDIP_flex	LCP2M_lateral	LCP2M_flex	LPIP_flex	LDIP_flex	thumb_abd	thumb_flex	TCP2M_lateral	TCP2M_flex	TCP2M2_flex	flexion
0.333333	0.000000	0.000000	0.000000	0.000000	0.000000	0.000000	0.000000	38.971143	38.971143	38.971143	0.000000	0.000000	0.000000	0.000000	0.000000	0.000000	0.000000	0.000000	0.000000	0.000000	0.000000	0.000000	0.000000	38.971143	0.000000	8.660254	8.660254	0.000000
0.340000	0.000000	0.000000	0.000000	0.000000	0.000000	0.000000	0.000000	39.433801	39.433801	39.433801	0.000000	0.000000	0.000000	0.000000	0.000000	0.000000	0.000000	0.000000	0.000000	0.000000	0.000000	0.000000	0.000000	39.433801	0.000000	8.763067	8.763067	0.000000
0.346667	0.000000	0.000000	0.000000	0.000000	0.000000	0.000000	0.000000	39.879161	39.879161	39.879161	0.000000	0.000000	0.000000	0.000000	0.000000	0.000000	0.000000	0.000000	0.000000	0.000000	0.000000	0.000000	0.000000	39.879161	0.000000	8.862036	8.862036	0.000000
0.353333	0.000000	0.000000	0.000000	0.000000	0.000000	0.000000	0.000000	40.307029	40.307029	40.307029	0.000000	0.000000	0.000000	0.000000	0.000000	0.000000	0.000000	0.000000	0.000000	0.000000	0.000000	0.000000	0.000000	40.307029	0.000000	8.957118	8.957118	0.000000
0.360000	0.000000	0.000000	0.000000	0.000000	0.000000	0.000000	0.000000	40.717217	40.717217	40.717217	0.000000	0.000000	0.000000	0.000000	0.000000	0.000000	0.000000	0.000000	0.000000	0.000000	0.000000	0.000000	0.000000	40.717217	0.000000	9.048271	9.048271	0.000000
0.366667	0.000000	0.000000	0.000000	0.000000	0.000000	0.000000	0.000000	41.109546	41.109546	41.109546	0.000000	0.000000	0.000000	0.000000	0.000000	0.000000	0.000000	0.000000	0.000000	0.000000	0.000000	0.000000	0.000000	41.109546	0.000000	9.135455	9.135455	0.000000
0.373333	0.000000	0.000000	0.000000	0.000000	0.000000	0.000000	0.000000	41.483842	41.483842	41.483842	0.000000	0.000000	0.000000	0.000000	0.000000	0.000000	0.000000	0.000000	0.000000	0.000000	0.000000	0.000000	0.000000	41.483842	0.000000	9.218632	9.218632	0.000000
0.380000	0.000000	0.000000	0.000000	0.000000	0.000000	0.000000	0.000000	41.839942	41.839942	41.839942	0.000000	0.000000	0.000000	0.000000	0.000000	0.000000	0.000000	0.000000	0.000000	0.000000	0.000000	0.000000	0.000000	41.839942	0.000000	9.297765	9.297765	0.000000
0.386667	0.000000	0.000000	0.000000	0.000000	0.000000	0.000000	0.000000	42.177690	42.177690	42.177690	0.000000	0.000000	0.000000	0.000000	0.000000	0.000000	0.000000	0.000000	0.000000	0.000000	0.000000	0.000000	0.000000	42.177690	0.000000	9.372820	9.372820	0.000000
0.393333	0.000000	0.000000	0.000000	0.000000	0.000000	0.000000	0.000000	42.496937	42.496937	42.496937	0.000000	0.000000	0.000000	0.000000	0.000000	0.000000	0.000000	0.000000	0.000000	0.000000	0.000000	0.000000	0.000000	42.496937	0.000000	9.443764	9.443764	0.000000
0.400000	0.000000	0.000000	0.000000	0.000000	0.000000	0.000000	0.000000	42.797543	42.797543	42.797543	0.000000	0.000000	0.000000	0.000000	0.000000	0.000000	0.000000	0.000000	0.000000	0.000000	0.000000	0.000000	0.000000	42.797543	0.000000	9.510565	9.510565	0.000000
0.406667	0.000000	0.000000	0.000000	0.000000	0.000000	0.000000	0.000000	43.079377	43.079377	43.079377	0.000000	0.000000	0.000000	0.000000	0.000000	0.000000	0.000000	0.000000	0.000000	0.000000	0.000000	0.000000	0.000000	43.079377	0.000000	9.573195	9.573195	0.000000
0.413333	0.000000	0.000000	0.000000	0.000000	0.000000	0.000000	0.000000	43.342316	43.342316	43.342316	0.000000	0.000000	0.000000	0.000000	0.000000	0.000000	0.000000	0.000000	0.000000	0.000000	0.000000	0.000000	0.000000	43.342316	0.000000	9.631626	9.631626	0.000000
0.420000	0.000000	0.000000	0.000000	0.000000	0.000000	0.000000	0.000000	43.586242	43.586242	43.586242	0.000000	0.000000	0.000000	0.000000	0.000000	0.000000	0.000000	0.000000	0.000000	0.000000	0.000000	0.000000	0.000000	43.586242	0.000000	9.685832	9.685832	0.000000
0.426667	0.000000	0.000000	0.000000	0.000000	0.000000	0.000000	0.000000	43.811051	43.811051	43.811051	0.000000	0.000000	0.000000	0.000000	0.000000	0.000000	0.000000	0.000000	0.000000	0.000000	0.000000	0.000000	0.000000	43.811051	0.000000	9.735789	9.735789	0.000000
0.433333	0.000000	0.000000	0.000000	0.000000	0.000000	0.000000	0.000000	44.016642	44.016642	44.016642	0.000000	0.000000	0.000000	0.000000	0.000000	0.000000	0.000000	0.000000	0.000000	0.000000	0.000000	0.000000	0.000000	44.016642	0.000000	9.781476	9.781476	0.000000
0.440000	0.000000	0.000000	0.000000	0.000000	0.000000	0.000000	0.000000	44.202926	44.202926	44.202926	0.000000	0.000000	0.000000	0.000000	0.000000	0.000000	0.000000	0.000000	0.000000	0.000000	0.000000	0.000000	0.000000	44.202926	0.000000	9.822873	9.822873	0.000000
0.446667	0.000000	0.000000	0.000000	0.000000	0.000000	0.000000	0.000000	44.369822	44.369822	44.369822	0.000000	0.000000	0.000000	0.000000	0.000000	0.000000	0.000000	0.000000	0.000000	0.000000	0.000000	0.000000	0.000000	44.369822	0.000000	9.859960	9.859960	0.000000
0.453333	0.000000	0.000000	0.000000	0.000000	0.000000	0.000000	0.000000	44.517255	44.517255	44.517255	0.000000	0.000000	0.000000	0.000000	0.000000	0.000000	0.000000	0.000000	0.000000	0.000000	0.000000	0.000000	0.000000	44.517255	0.000000	9.892723	9.892723	0.000000
0.460000	0.000000	0.000000	0.000000	0.000000	0.000000	0.000000	0.000000	44.645162	44.645162	44.645162	0.000000	0.000000	0.000000	0.000000	0.000000	0.000000	0.000000	0.000000	0.000000	0.000000	0.000000	0.000000	0.000000	44.645162	0.000000	9.921147	9.921147	0.000000
0.466667	0.000000	0.000000	0.000000	0.000000	0.000000	0.000000	0.000000	44.753485	44.753485	44.753485	0.000000	0.000000	0.000000	0.000000	0.000000	0.000000	0.000000	0.000000	0.000000	0.000000	0.000000	0.000000	0.000000	44.753485	0.000000	9.945219	9.945219	0.000000
0.473333	0.000000	0.000000	0.000000	0.000000	0.000000	0.000000	0.000000	44.842179	44.842179	44.842179	0.000000	0.000000	0.000000	0.000000	0.000000	0.000000	0.000000	0.000000	0.000000	0.000000	0.000000	0.000000	0.000000	44.842179	0.000000	9.964929	9.964929	0.000000
0.480000	0.000000	0.000000	0.000000	0.000000	0.000000	0.000000	0.000000	44.911203	44.911203	44.911203	0.000000	0.000000	0.000000	0.000000	0.000000	0.000000	0.000000	0.000000	0.000000	0.000000	0.000000	0.000000	0.000000	44.911203	0.000000	9.980267	9.980267	0.000000
0.486667	0.000000	0.000000	0.000000	0.000000	0.000000	0.000000	0.000000	44.960527	44.960527	44.960527	0.000000	0.000000	0.000000	0.000000	0.000000	0.000000	0.000000	0.000000	0.000000	0.000000	0.000000	0.000000	0.000000	44.960527	0.000000	9.991228	9.991228	0.000000
0.493333	0.000000	0.000000	0.000000	0.000000	0.000000	0.000000	0.000000	44.990131	44.990131	44.990131	0.000000	0.000000	0.000000	0.000000	0.000000	0.000000	0.000000	0.000000	0.000000	0.000000	0.000000	0.000000	0.000000	44.990131	0.000000	9.997807	9.997807	0.000000
0.500000	0.000000	0.000000	0.000000	0.000000	0.000000	0.000000	0.000000	45.000000	45.000000	45.000000	0.000000	0.000000	0.000000	0.000000	0.000000	0.000000	0.000000	0.000000	0.000000	0.000000	0.000000	0.000000	0.000000	45.000000	0.000000	10.000000	10.000000	0.000000
0.506667	0.000000	0.000000	0.000000	0.000000	0.000000	0.000000	0.000000	44.990131	44.990131	44.990131	0.000000	0.000000	0.000000	0.000000	0.000000	0.000000	0.000000	0.000000	0.000000	0.000000	0.000000	0.000000	0.000000	44.990131	0.000000	9.997807	9.997807	0.000000
0.513333	0.000000	0.000000	0.000000	0.000000	0.000000	0.000000	0.000000	44.960527	44.960527	44.960527	0.000000	0.000000	0.000000	0.000000	0.000000	0.000000	0.000000	0.000000	0.000000	0.000000	0.000000	0.000000	0.000000	44.960527	0.000000	9.991228	9.991228	0.000000
0.520000	0.000000	0.000000	0.000000	0.000000	0.000000	0.000000	0.000000	44.911203	44.911203	44.911203	0.000000	0.000000	0.000000	0.000000	0.000000	0.000000	0.000000	0.000000	0.000000	0.000000	0.000000	0.000000	0.000000	44.911203	0.000000	9.980267	9.980267	0.000000
0.526667	0.000000	0.000000	0.000000	0.000000	0.000000	0.000000	0.000000	44.842179	44.842179	44.842179	0.000000	0.000000	0.000000	0.000000	0.000000	0.000000	0.000000	0.000000	0.000000	0.000000	0.000000	0.000000	0.000000	44.842179	0.000000	9.964929	9.964929	0.000000
0.533333	0.000000	0.000000	0.000000	0.000000	0.000000	0.000000	0.000000	44.753485	44.753485	44.753485	0.000000	0.000000	0.000000	0.000000	0.000000	0.000000	0.000000	0.000000	0.000000	0.000000	0.000000	0.000000	0.000000	44.753485	0.000000	9.945219	9.945219	0.000000
0.540000	0.000000	0.000000	0.000000	0.000000	0.000000	0.000000	0.000000	44.645162	44.645162	44.645162	0.000000	0.000000	0.000000	0.000000	0.000000	0.000000	0.000000	0.000000	0.000000	0.000000	0.000000	0.000000	0.000000	44.645162	0.000000	9.921147	9.921147	0.000000
0.546667	0.000000	0.000000	0.000000	0.000000	0.000000	0.000000	0.000000	44.517255	44.517255	44.517255	0.000000	0.000000	0.000000	0.000000	0.000000	0.000000	0.000000	0.000000	0.000000	0.000000	0.000000	0.000000	0.000000	44.517255	0.000000	9.892723	9.892723	0.000000
